<?xml version="1.0" encoding="UTF-8"?>
<svg version="1.1" xmlns="http://www.w3.org/2000/svg" width="40" height="43">
<path d="M0 0 C1.18078125 -0.03738281 2.3615625 -0.07476563 3.578125 -0.11328125 C13.34329207 -0.21225254 13.34329207 -0.21225254 17.015625 2.7734375 C21.41168431 7.89192614 20.54167831 13.05451117 20.60009766 19.58642578 C20.61661388 20.93848943 20.64384766 22.29046732 20.68212891 23.64208984 C21.03886736 36.31406027 21.03886736 36.31406027 17.8515625 40.234375 C12.56367298 44.58537118 7.12553815 43.67146453 0.5 43.75 C-0.68078125 43.78738281 -1.8615625 43.82476562 -3.078125 43.86328125 C-12.84329207 43.96225254 -12.84329207 43.96225254 -16.515625 40.9765625 C-20.91168431 35.85807386 -20.04167831 30.69548883 -20.10009766 24.16357422 C-20.11661388 22.81151057 -20.14384766 21.45953268 -20.18212891 20.10791016 C-20.53886736 7.43593973 -20.53886736 7.43593973 -17.3515625 3.515625 C-12.06367298 -0.83537118 -6.62553815 0.07853547 0 0 Z " fill="#306FD8" transform="translate(19.75,-0.375)"/>
<path d="M0 0 C0.33 0.99 0.66 1.98 1 3 C1.99 2.34 2.98 1.68 4 1 C6.80590236 0.57216934 9.1233315 0.77169298 12 1 C14 4 14 4 14 7 C13.01 7 12.02 7 11 7 C10.67 6.34 10.34 5.68 10 5 C7.58380177 4.74969023 7.58380177 4.74969023 5 5 C4.01 6.485 4.01 6.485 3 8 C3.62648438 8.04898437 4.25296875 8.09796875 4.8984375 8.1484375 C6.12433594 8.26058594 6.12433594 8.26058594 7.375 8.375 C8.18710937 8.44460937 8.99921875 8.51421875 9.8359375 8.5859375 C12 9 12 9 14 11 C13.75062827 16.0705585 13.308978 19.95569355 10 24 C8.0625 25 8.0625 25 6 25 C3.75 23.5625 3.75 23.5625 2 22 C1.01 22.99 0.02 23.98 -1 25 C-5.21543758 23.49448658 -6.86049125 20.82055134 -9 17 C-9 15.68 -9 14.36 -9 13 C-9.33 12.34 -9.66 11.68 -10 11 C-10.375 7.625 -10.375 7.625 -10 4 C-6.88228157 0.52597089 -4.64040092 -0.53033153 0 0 Z " fill="#3D78DA" transform="translate(18,9)"/>
<path d="M0 0 C2 3 2 3 2 6 C1.01 6 0.02 6 -1 6 C-1.33 5.34 -1.66 4.68 -2 4 C-4.41619823 3.74969023 -4.41619823 3.74969023 -7 4 C-7.99 5.485 -7.99 5.485 -9 7 C-8.37351562 7.04898437 -7.74703125 7.09796875 -7.1015625 7.1484375 C-6.28429688 7.22320313 -5.46703125 7.29796875 -4.625 7.375 C-3.40683594 7.47941406 -3.40683594 7.47941406 -2.1640625 7.5859375 C0 8 0 8 2 10 C1.75062827 15.0705585 1.308978 18.95569355 -2 23 C-3.9375 24 -3.9375 24 -6 24 C-8.25 22.5625 -8.25 22.5625 -10 21 C-10.99 21.99 -11.98 22.98 -13 24 C-16.35435922 22.61198929 -18.11290303 21.11371 -20 18 C-20 17.01 -20 16.02 -20 15 C-18.0625 15.3125 -18.0625 15.3125 -16 16 C-15.67 16.99 -15.34 17.98 -15 19 C-14.4225 18.67 -13.845 18.34 -13.25 18 C-11 17 -11 17 -7 17 C-6.67 17.66 -6.34 18.32 -6 19 C-5.01 19.33 -4.02 19.66 -3 20 C-2.34 17.03 -1.68 14.06 -1 11 C-2.423125 11.04125 -3.84625 11.0825 -5.3125 11.125 C-8.98060033 11.23132175 -9.79619983 11.13586678 -13 9 C-12.52238806 3.62686567 -12.52238806 3.62686567 -10.4375 1.125 C-6.73787883 -0.58251747 -4.06312509 -0.39320565 0 0 Z " fill="#E8EFFA" transform="translate(30,10)"/>
<path d="M0 0 C0.33 0.66 0.66 1.32 1 2 C0 4 0 4 -3.0625 5.125 C-4.5165625 5.558125 -4.5165625 5.558125 -6 6 C-5.62095792 9.29075996 -5.62095792 9.29075996 -4 12 C-2.15108054 12.23363881 -0.29511969 12.41303635 1.5625 12.5625 C2.57441406 12.64628906 3.58632813 12.73007812 4.62890625 12.81640625 C5.41136719 12.87699219 6.19382812 12.93757813 7 13 C7 13.66 7 14.32 7 15 C3.27210896 16.86394552 -0.94037972 16.55445363 -5 16 C-8.125 13.9375 -8.125 13.9375 -10 11 C-10.625 7.4375 -10.625 7.4375 -10 4 C-6.88228157 0.52597089 -4.64040092 -0.53033153 0 0 Z " fill="#E9EFFA" transform="translate(18,9)"/>
</svg>
